<svg width="264" height="284" viewBox="0 0 264 284" fill="none" xmlns="http://www.w3.org/2000/svg">
<g clip-path="url(#clip0)">
<path d="M148.913 62.5624C132.465 64.501 125.956 58.3328 119.184 54.3675C112.411 50.4023 105.286 51.0191 105.286 51.0191L118.568 79.1283C134.576 94.725 160.348 86.3539 160.348 86.3539L160.788 86.8826L149.441 62.6505L148.913 62.5624Z" fill="#FFD703"/>
<path d="M110.212 61.417L118.48 78.9522C134.488 94.5488 160.26 86.1778 160.26 86.1778L160.7 86.7065L155.334 75.2513C146.099 74.4583 137.655 69.1713 129.035 66.2634C123.054 63.9724 116.721 62.3863 110.212 61.417Z" fill="#F3BF06"/>
<path d="M160.172 40.7972L159.556 37.7132C159.644 36.0389 157.445 36.9201 156.302 36.3914C156.302 36.3914 149.793 32.9549 152.608 28.3728C156.126 22.469 157.973 23.262 159.029 23.5264C159.029 23.5264 159.205 21.5878 157.709 18.9443C156.214 16.3008 155.862 14.4504 156.918 13.8335C157.885 13.2167 160.436 17.5344 163.778 25.4649C164.482 27.1392 165.274 34.1004 166.241 40.5329L166.329 40.7972C167.033 44.9387 175.477 71.3737 161.14 85.1199L149.705 65.2056L151.64 60.3591C151.64 60.3591 161.931 49.6089 160.172 40.7972Z" fill="#D89C66"/>
<path d="M159.292 25.6414C159.292 25.6414 155.51 24.9365 154.982 28.1968C154.982 28.1968 154.191 30.4878 155.862 29.7829L157.093 28.8136C157.093 28.8136 156.741 32.162 158.325 33.1313" stroke="#A87E5D" stroke-miterlimit="10"/>
<path d="M154.807 32.867C154.807 32.867 156.742 31.9858 157.27 30.6641" stroke="#A87E5D" stroke-miterlimit="10"/>
<path d="M167.385 76.9254L154.015 59.9189C153.136 58.7734 151.64 58.2447 150.145 58.4209L149.442 58.509C146.803 58.9496 145.307 61.6812 146.451 64.0604L156.83 85.4727C156.918 85.5609 156.918 85.7371 157.006 85.8252C158.501 88.2044 161.932 88.3806 163.691 86.1777C164.922 84.5916 166.241 83.0055 167.297 81.7718C168.528 80.362 168.528 78.3353 167.385 76.9254Z" fill="#FFEA9F"/>
<path d="M66.6722 275.1C67.112 276.246 67.7277 277.215 68.6952 277.92C69.6628 278.537 70.7183 278.713 71.8617 278.977C73.445 279.242 75.0282 279.506 76.6115 279.682C77.3151 279.77 78.0188 279.858 78.6345 280.211C79.2502 280.563 79.778 281.092 79.8659 281.797C79.9539 282.59 79.2502 283.383 78.5465 283.736C77.7549 284.088 76.8753 284.088 76.0837 284C72.7413 283.912 69.223 283.736 66.6722 281.621C65.8806 281.004 64.6491 280.387 63.5937 280.475C62.3622 280.563 62.0984 281.533 60.9549 282.061C59.8115 282.59 58.4041 282.238 57.4366 281.356C56.469 280.475 56.0292 279.242 55.8533 278.008C55.6774 276.863 55.7654 275.629 56.2931 274.66C57.0847 273.074 58.756 272.016 60.5151 271.576C61.7465 271.311 64.2973 270.783 65.5287 271.487C66.4083 272.016 66.3204 274.131 66.6722 275.1Z" fill="#20201F"/>
<path d="M116.808 272.457C117.248 273.602 117.864 274.571 118.831 275.276C119.799 275.893 120.854 276.069 121.998 276.334C123.581 276.598 125.164 276.862 126.748 277.039C127.451 277.127 128.155 277.215 128.771 277.567C129.386 277.92 129.914 278.449 130.002 279.153C130.09 279.947 129.386 280.74 128.683 281.092C127.891 281.445 127.012 281.445 126.22 281.356C122.878 281.268 119.359 281.092 116.808 278.977C116.017 278.36 114.785 277.744 113.73 277.832C112.498 277.92 112.235 278.889 111.091 279.418C109.948 279.947 108.54 279.594 107.573 278.713C106.605 277.832 106.165 276.598 105.99 275.365C105.814 274.219 105.902 272.985 106.429 272.016C107.221 270.43 108.892 269.373 110.651 268.932C111.883 268.668 114.434 268.139 115.665 268.844C116.545 269.373 116.457 271.487 116.808 272.457Z" fill="#20201F"/>
<path d="M46.7055 131.558C53.8301 111.908 139.062 135.083 139.062 135.083C139.237 137.991 142.58 144.776 142.58 161.518C142.58 194.826 121.558 227.693 121.294 271.663C121.294 272.456 120.678 273.161 119.799 273.161C114.521 273.25 108.153 272.368 102.699 270.606C102.171 270.43 101.82 269.989 101.732 269.461C94.8709 234.831 102.471 179.67 99.5684 179.67C95.5223 179.67 92.3719 185.211 90.7886 189C80.8493 213.408 74.6762 240.294 71.7736 273.866C71.6856 274.571 71.1579 275.188 70.3663 275.276C67.1998 275.541 64.4731 275.541 62.1862 275.452C61.9223 275.452 61.7464 275.452 61.5704 275.452C61.3945 275.452 61.2186 275.452 61.1307 275.452C60.6909 275.452 60.339 275.364 59.8992 275.364C59.7233 275.364 59.5474 275.364 59.3715 275.276C59.1076 275.276 58.9317 275.188 58.6678 275.188C58.4919 275.188 58.316 275.188 58.1401 275.1C57.8762 275.1 57.6123 275.012 57.3485 275.012C57.1725 275.012 56.9966 274.924 56.8207 274.924C56.5568 274.924 56.3809 274.836 56.117 274.836C55.9411 274.836 55.8532 274.748 55.6773 274.748C55.5013 274.748 55.3254 274.659 55.1495 274.659C55.0615 274.659 54.8856 274.571 54.7977 274.571C54.5338 274.483 54.2699 274.483 54.094 274.395C54.0061 274.395 53.9181 274.307 53.8301 274.307C53.6542 274.219 53.4783 274.219 53.3903 274.131C53.3024 274.131 53.2144 274.043 53.1265 274.043C52.9506 273.954 52.8626 273.954 52.6867 273.866C52.5987 273.866 52.5987 273.866 52.5108 273.778C52.3348 273.69 52.1589 273.69 51.983 273.602C51.8951 273.602 51.8951 273.602 51.8071 273.514C51.7191 273.426 51.5432 273.426 51.4553 273.338C51.3673 273.338 51.3673 273.338 51.2793 273.25C51.1914 273.161 51.0155 273.161 50.9275 273.073C50.3998 272.809 50.0479 272.28 50.1359 271.663C52.3348 236.593 53.2144 219.146 49.2563 186.895C49.3443 187.071 43.1872 141.251 46.7055 131.558Z" fill="#6460BE"/>
<path d="M96.8076 145.5C98.3125 153.5 123.367 144.721 133.027 154.639C142.687 164.557 136.013 199 136.013 199C136.013 199 148.973 163.5 138.296 133C138.296 133 95.3028 137.5 96.8076 145.5Z" fill="#433F9B"/>
<path d="M166.436 147.331H237.565C245.526 147.331 252 149.028 252 157.311V274.289C252 282.571 245.526 281.268 237.565 281.268H166.436C158.475 281.268 152.001 282.571 152.001 274.289V157.311C151.913 149.116 158.388 147.331 166.436 147.331Z" fill="#3B4476"/>
<path d="M234.639 144.044L228.218 132.06C228.042 131.795 227.778 131.619 227.514 131.619H176.85C176.586 131.619 176.323 131.795 176.147 132.06L169.726 144.132C169.55 144.396 169.55 144.749 169.726 145.101C169.902 145.365 170.165 145.542 170.429 145.542H233.935C234.375 145.542 234.727 145.101 234.727 144.572C234.815 144.396 234.727 144.22 234.639 144.044ZM171.837 143.691L177.29 133.558H226.986L232.44 143.691H171.837Z" fill="#1F2340"/>
<path d="M229.554 132.941H175.548C171.766 132.941 168.599 129.417 168.599 125.099V96.373H236.503V125.099C236.415 129.505 233.336 132.941 229.554 132.941Z" fill="#1F2340"/>
<path d="M171.941 102.894H158.748C157.868 102.894 157.252 102.101 157.252 101.131C157.252 100.162 157.956 99.3691 158.748 99.3691H171.941V102.894Z" fill="#1F2340"/>
<path d="M232.896 99.457H246.09C246.97 99.457 247.586 100.25 247.586 101.219C247.586 102.189 246.882 102.982 246.09 102.982H232.896V99.457Z" fill="#1F2340"/>
<path d="M187.057 139.318C187.761 140.816 187.145 142.578 185.65 143.371C184.154 144.076 182.395 143.459 181.603 141.961C180.196 139.053 181.691 135 181.691 135C181.691 135 185.913 136.85 187.057 139.318Z" fill="#2D4DB9"/>
<path d="M186.705 140.376C187.233 141.521 186.793 142.843 185.649 143.371C184.506 143.9 183.187 143.46 182.659 142.314C181.603 140.111 182.747 137.115 182.747 137.115C182.747 137.115 185.825 138.525 186.705 140.376Z" fill="#5E7CE2"/>
<path d="M186.088 141.688C186.333 142.226 186.088 142.832 185.66 143.101C185.171 143.37 184.62 143.101 184.376 142.63C183.948 141.621 184.376 140.208 184.376 140.208C184.376 140.208 185.721 140.814 186.088 141.688Z" fill="#FFCF00"/>
<path d="M194.289 140.38C194.334 142.035 193.065 143.403 191.377 143.532C189.725 143.58 188.359 142.311 188.233 140.621C188.107 137.393 191.099 134.277 191.099 134.277C191.099 134.277 194.228 137.662 194.289 140.38Z" fill="#2D4DB9"/>
<path d="M193.543 141.208C193.568 142.469 192.637 143.505 191.377 143.532C190.118 143.559 189.085 142.628 189.059 141.367C188.973 138.925 191.22 136.637 191.22 136.637C191.22 136.637 193.477 139.161 193.543 141.208Z" fill="#5E7CE2"/>
<path d="M192.453 142.166C192.461 142.757 191.995 143.214 191.495 143.289C190.939 143.34 190.542 142.873 190.506 142.344C190.518 141.248 191.475 140.124 191.475 140.124C191.475 140.124 192.466 141.217 192.453 142.166Z" fill="#FFCF00"/>
<path d="M201.289 140.394C201.334 142.048 200.065 143.417 198.377 143.546C196.725 143.594 195.359 142.325 195.233 140.635C195.107 137.407 198.099 134.29 198.099 134.29C198.099 134.29 201.228 137.675 201.289 140.394Z" fill="#2D4DB9"/>
<path d="M200.543 141.222C200.568 142.483 199.637 143.519 198.377 143.546C197.118 143.573 196.085 142.641 196.059 141.38C195.973 138.939 198.22 136.651 198.22 136.651C198.22 136.651 200.477 139.174 200.543 141.222Z" fill="#5E7CE2"/>
<path d="M199.453 142.179C199.461 142.77 198.995 143.228 198.495 143.303C197.939 143.354 197.542 142.887 197.506 142.358C197.518 141.261 198.475 140.138 198.475 140.138C198.475 140.138 199.466 141.231 199.453 142.179Z" fill="#FFCF00"/>
<path d="M208.289 140.394C208.334 142.048 207.065 143.417 205.377 143.546C203.725 143.594 202.359 142.325 202.233 140.635C202.107 137.407 205.099 134.29 205.099 134.29C205.099 134.29 208.228 137.675 208.289 140.394Z" fill="#2D4DB9"/>
<path d="M207.543 141.222C207.568 142.483 206.637 143.519 205.377 143.546C204.118 143.573 203.085 142.641 203.059 141.38C202.973 138.939 205.22 136.651 205.22 136.651C205.22 136.651 207.477 139.174 207.543 141.222Z" fill="#5E7CE2"/>
<path d="M206.453 142.179C206.461 142.77 205.995 143.228 205.495 143.303C204.939 143.354 204.542 142.887 204.506 142.358C204.518 141.261 205.475 140.138 205.475 140.138C205.475 140.138 206.466 141.231 206.453 142.179Z" fill="#FFCF00"/>
<path d="M215.289 140.394C215.334 142.048 214.065 143.417 212.377 143.546C210.725 143.594 209.359 142.325 209.233 140.635C209.107 137.407 212.099 134.29 212.099 134.29C212.099 134.29 215.228 137.675 215.289 140.394Z" fill="#2D4DB9"/>
<path d="M214.543 141.222C214.568 142.483 213.637 143.519 212.377 143.546C211.118 143.573 210.085 142.641 210.059 141.38C209.973 138.939 212.22 136.651 212.22 136.651C212.22 136.651 214.477 139.174 214.543 141.222Z" fill="#5E7CE2"/>
<path d="M213.453 142.179C213.461 142.77 212.995 143.228 212.495 143.303C211.939 143.354 211.542 142.887 211.506 142.358C211.518 141.261 212.475 140.138 212.475 140.138C212.475 140.138 213.466 141.231 213.453 142.179Z" fill="#FFCF00"/>
<path d="M221.731 141.355C221.201 142.923 219.537 143.768 217.909 143.305C216.342 142.778 215.5 141.115 215.966 139.486C216.964 136.414 220.849 134.525 220.849 134.525C220.849 134.525 222.614 138.783 221.731 141.355Z" fill="#2D4DB9"/>
<path d="M220.744 141.875C220.332 143.067 219.099 143.716 217.908 143.306C216.717 142.895 216.07 141.664 216.483 140.472C217.247 138.152 220.146 136.782 220.146 136.782C220.146 136.782 221.391 139.931 220.744 141.875Z" fill="#5E7CE2"/>
<path d="M219.39 142.394C219.194 142.952 218.599 143.22 218.103 143.117C217.564 142.973 217.353 142.397 217.503 141.888C217.893 140.864 219.18 140.141 219.18 140.141C219.18 140.141 219.731 141.509 219.39 142.394Z" fill="#FFCF00"/>
<path d="M194.827 83.4458C195.795 81.6835 196.41 79.4806 195.883 77.8064C195.091 74.8985 191.573 73.4886 190.781 70.6689C190.253 68.7303 191.749 65.2938 191.661 65.2057C191.573 65.1176 189.022 67.3205 189.022 71.0214C189.022 73.753 190.341 75.9559 192.013 78.1588C193.332 79.833 194.124 81.7716 193.684 83.8864C193.596 84.4151 193.508 84.8557 193.508 85.2963C193.948 84.8557 194.475 84.2389 194.827 83.4458Z" fill="#CFECFF"/>
<path d="M200.105 54.3677C201.073 52.6054 201.688 50.4024 201.161 48.7282C200.369 45.8204 196.851 44.4105 196.059 41.5908C195.531 39.6522 197.026 36.2157 196.939 36.1275C196.851 36.0394 194.3 38.2423 194.3 41.9432C194.3 44.6749 195.619 46.8778 197.29 49.0807C198.61 50.7549 199.401 52.6935 198.962 54.8083C198.874 55.337 198.786 55.7776 198.786 56.2181C199.225 55.7776 199.753 55.1607 200.105 54.3677Z" fill="#CFECFF"/>
<path d="M213.914 86.9708C215.321 84.5035 216.113 81.3313 215.409 78.9522C214.266 74.8988 209.252 72.8721 208.109 68.8187C207.317 66.0871 209.516 61.2407 209.34 61.1526C209.164 61.0645 205.646 63.6199 205.646 69.3474C205.646 73.3127 207.493 76.3968 209.868 79.4809C211.715 81.86 212.859 84.5916 212.155 87.6757C211.979 88.3806 211.891 89.0856 211.891 89.7024C212.683 88.9093 213.386 87.9401 213.914 86.9708Z" fill="#CFECFF"/>
<path d="M48.1133 87.2351L42.3081 137.726C42.3081 137.726 60.419 139.605 90.7889 146.5C124.396 152.5 137.692 141.215 142.58 138.607C147.469 136 122.614 61.4169 109.156 50.4905C99.6568 42.7362 73.0935 38.1541 55.8537 49.8736C54.2704 50.931 50.928 55.6012 50.928 55.6012" fill="#FFD703"/>
<path d="M52.9581 58C54.0136 62.5821 54.2775 67.8691 53.5738 72.6274C52.8702 77.3857 51.199 81.7915 49 84.6994C49.7916 85.4924 50.8471 84.5231 51.5508 83.3776C53.4859 80.2935 54.7173 75.8877 54.9812 71.2175C55.1571 66.5473 54.4534 61.789 52.9581 58Z" fill="#F3BF06"/>
<path d="M71.8619 41.8555L66.0566 45.2039L70.4546 59.3026C70.4546 59.3026 75.2923 54.368 77.4912 54.0156C78.8985 53.7512 82.7687 55.7779 82.7687 55.7779L71.8619 41.8555Z" fill="#FFEA9F"/>
<path d="M82.769 55.7774L88.0465 41.6787L94.2036 44.3222L93.324 56.6586C93.324 56.6586 88.3984 53.5745 87.1669 53.1339C85.7596 52.6052 82.769 55.7774 82.769 55.7774Z" fill="#FFEA9F"/>
<path d="M48.4652 86.6182C48.4652 86.6182 57.1343 130.364 53.0002 139L42.3081 137.726C42.3081 137.726 47.5856 89.2617 48.4652 86.6182Z" fill="#F3BF06"/>
<path d="M73.0935 130.412C77.4914 126.006 78.8108 120.279 76.0841 117.547C73.3574 114.816 67.6401 116.137 63.2422 120.543C60.1636 123.627 58.5804 127.504 58.9322 130.412C59.1081 132.263 58.4924 134.113 57.1731 135.435L27.0034 165.218L28.4987 166.716L58.2286 136.58C59.5479 135.259 61.3951 134.554 63.2422 134.818C66.1448 135.082 70.015 133.496 73.0935 130.412Z" fill="#1F2340"/>
<path d="M27.2674 111.291C27.2674 111.291 25.2443 144.511 31.8412 149.093C31.8412 149.093 35.2716 148.564 36.2391 149.093C38.0862 150.15 43.0119 153.146 43.0119 153.146C43.7155 153.763 43.9794 154.733 43.6276 155.614V155.702C42.4841 158.345 40.725 160.548 38.438 162.222L34.392 165.13C32.8967 166.188 30.8736 166.276 29.2904 165.218C27.2674 163.809 26.0359 159.491 25.7721 157.112C25.7721 157.112 1.67155 136.492 4.83805 112.789L27.2674 111.291Z" fill="#D89C66"/>
<path d="M0.439947 113.23C0.264031 114.375 0.0881143 115.345 0.000156205 116.138C-0.263718 118.781 1.67136 121.072 4.3101 121.248L30.0818 123.275C31.6651 123.363 33.1604 122.746 34.1279 121.425C34.8316 120.543 35.6232 119.31 36.5028 117.988C38.3499 114.992 36.3269 111.115 32.8085 110.851L5.3656 109.088C3.07869 108.912 1.05565 110.41 0.527905 112.613C0.527905 112.877 0.439947 113.054 0.439947 113.23Z" fill="#F8EBE5"/>
<path d="M55.9414 49.874C54.3581 50.9314 51.0157 55.6016 51.0157 55.6016C50.0482 56.2184 48.9927 57.0996 47.8492 57.6283C35.0953 63.2678 25.4199 74.2823 16.712 84.7682C16.0084 85.6494 15.3047 86.4424 14.601 87.3236C11.1707 91.6413 9.49947 93.8442 6.94869 98.6906C5.71727 100.982 3.7822 105.123 3.25445 107.679C2.63874 110.234 1.58324 113.935 0.967535 116.49C0.703661 117.371 1.31937 118.253 2.28691 118.341L32.5445 120.72C32.5445 120.72 37.822 94.2848 48.1131 87.1474" fill="#FFD703"/>
<path d="M73.0935 130.412C77.4914 126.006 78.8108 120.279 76.0841 117.547C73.3574 114.816 67.6401 116.137 63.2422 120.543C60.1636 123.627 58.5804 127.504 58.9322 130.412C59.1081 132.263 58.4924 134.113 57.1731 135.435L27.0034 165.218L28.4987 166.716L58.2286 136.58C59.5479 135.259 61.3951 134.554 63.2422 134.818C66.1448 135.082 70.015 133.496 73.0935 130.412Z" fill="#1F2340"/>
<path d="M27.2674 111.291C27.2674 111.291 25.2443 144.511 31.8412 149.093C31.8412 149.093 35.2716 148.564 36.2391 149.093C38.0862 150.15 43.0119 153.146 43.0119 153.146C43.7155 153.763 43.9794 154.733 43.6276 155.614V155.702C42.4841 158.345 40.725 160.548 38.438 162.222L34.392 165.13C32.8967 166.188 30.8736 166.276 29.2904 165.218C27.2674 163.809 26.0359 159.491 25.7721 157.112C25.7721 157.112 1.67155 136.492 4.83805 112.789L27.2674 111.291Z" fill="#D89C66"/>
<path d="M0.439947 113.23C0.264031 114.375 0.0881143 115.345 0.000156205 116.138C-0.263718 118.781 1.67136 121.072 4.3101 121.248L30.0818 123.275C31.6651 123.363 33.1604 122.746 34.1279 121.425C34.8316 120.543 35.6232 119.31 36.5028 117.988C38.3499 114.992 36.3269 111.115 32.8085 110.851L5.3656 109.088C3.07869 108.912 1.05565 110.41 0.527905 112.613C0.527905 112.877 0.439947 113.054 0.439947 113.23Z" fill="#FFEA9F"/>
<path d="M86.5511 31.0166L72.126 32.9552C72.126 32.9552 72.8296 44.3222 72.2139 45.2034L82.8569 55.7774L88.926 45.2034C88.926 45.2034 87.4307 39.7402 87.1668 38.1541C86.815 36.3917 86.5511 31.0166 86.5511 31.0166Z" fill="#D89C66"/>
<path d="M86.5513 8.63477C86.5513 8.63477 89.8057 16.8296 88.0465 19.8256C86.2874 22.7334 82.769 12.6 82.769 12.6L86.5513 8.63477Z" fill="#1F2340"/>
<path d="M89.304 24.8869C90.2658 18.6344 85.9859 12.7846 79.7447 11.8211C73.5034 10.8576 67.6642 15.1451 66.7024 21.3976C65.7406 27.6501 70.0205 33.4998 76.2617 34.4634C82.5029 35.4269 88.3422 31.1393 89.304 24.8869Z" fill="#D89C66"/>
<path d="M85.4081 36.3915C85.4081 36.3915 79.0751 38.8588 77.4918 39.9162C72.2144 43.4408 72.2144 45.2032 72.2144 45.2032V31.1045L85.4081 36.3915Z" fill="#A87E5D"/>
<path d="M68.168 25.2012C68.168 25.2012 72.7418 30.1357 74.7649 29.8714C77.1397 29.5189 78.723 26.9635 83.0329 26.5229C87.3429 26.0823 88.5743 28.0209 88.5743 28.0209C88.5743 28.0209 90.5094 37.6256 81.8895 38.4187C73.2696 39.2117 64.9136 26.611 64.9136 26.611L68.168 25.2012Z" fill="#282E4F"/>
<path d="M85.9356 30.5762C85.9356 30.5762 85.0561 33.3078 82.3294 33.2197C79.6027 33.1316 78.811 31.193 78.811 31.193L85.9356 30.5762Z" fill="white"/>
<path d="M64.4737 25.4654C62.1868 23.2625 58.1407 14.8914 65.881 12.2479C67.2004 11.8073 68.2559 10.6618 68.5198 9.25194C69.3114 5.99163 73.2695 -0.440891 80.9219 0.704626C81.7135 0.792743 82.5051 0.792743 83.2088 0.528393C85.6716 -0.264657 91.7407 -1.32206 90.7732 7.66584C90.1574 13.6578 87.1669 13.4815 84.0883 13.834C81.6255 14.0984 77.3156 18.1517 75.0287 19.3854C74.325 19.7378 73.4454 19.9141 72.214 19.3854C70.8946 18.8567 69.4873 19.7378 69.3114 21.2358C69.0475 24.5842 67.9041 28.7257 64.4737 25.4654Z" fill="#282E4F"/>
<path d="M65.8811 25.4648C64.9135 25.9935 64.5617 27.2272 65.1774 28.1083C65.7052 29.0776 66.9366 29.4301 67.8161 28.8133" fill="#D89C66"/>
<rect x="151" y="158" width="101" height="2" fill="#5A649D"/>
<rect x="152" y="271" width="100" height="2" fill="#5A649D"/>
<path d="M147 179C147 177.895 147.895 177 149 177H157V183H149C147.895 183 147 182.105 147 181V179Z" fill="#2D3255"/>
<rect x="151" y="145" width="101" height="13" fill="#2D3255"/>
<path d="M156 167C157.105 167 158 167.895 158 169L158 265C158 266.105 157.105 267 156 267L152 267L152 167L156 167Z" fill="#5A649D"/>
</g>
<defs>
<clipPath id="clip0">
<rect width="264" height="284" fill="white"/>
</clipPath>
</defs>
</svg>
